<?xml version="1.0" encoding="utf-8"?>
<!-- Generator: Adobe Illustrator 14.0.0, SVG Export Plug-In . SVG Version: 6.00 Build 43363)  -->
<!DOCTYPE svg PUBLIC "-//W3C//DTD SVG 1.1//EN" "http://www.w3.org/Graphics/SVG/1.1/DTD/svg11.dtd">
<svg version="1.1" id="Layer_1" xmlns="http://www.w3.org/2000/svg" xmlns:xlink="http://www.w3.org/1999/xlink" x="0px" y="0px"
	 width="95px" height="97px" viewBox="0 0 95 97" enable-background="new 0 0 95 97" xml:space="preserve">
<path fill="#213160" d="M0,0h95v97H0V0z"/>
<path fill="#FDFDFB" d="M31.74,35.8c4.81-9.59,9.92-19.07,16.21-27.79c1.76,1.61,3.35,3.41,4.6,5.46
	c6.41,10.17,11.03,21.31,15.761,32.32c4.939,0.11,9.83-1.08,14.76-0.5c-0.26,1.19-0.74,2.42-2.021,2.81
	c-3.479,1.49-7.35,1.621-11.06,2.121c3.689,11.069,6.06,22.539,7.67,34.09c-2.79,0.619-5.66,0.56-8.49,0.369
	c-2.43-11.66-4.699-23.41-8.87-34.6c-3,0.34-5.979,0.859-8.97,1.27c1.29-3.25,4.54-4.58,7.43-6.03
	c-3.5-7.26-5.75-15.15-10.199-21.91c-0.4-1.1-2-1.61-2.71-0.54c-3.2,4.18-5.25,9.1-7.67,13.75c2.74,0.64,5.95,0.79,7.66,3.39
	c-3.12,0.87-6.36,1.03-9.57,1.21c-6.39,13.4-9.55,28.04-11.53,42.67c-3.14,0.27-6.31,0.27-9.45-0.031
	c0.02-1.459,0.03-2.92,0.03-4.379c1.33-0.291,2.65-0.561,3.98-0.851c0.71-5.17,1.85-10.271,2.82-15.399
	c1.6-8.271,5.12-15.971,7.89-23.88c-5.26-2.44-11.15-1.83-16.76-2.31c1.09-1.45,2.23-3.19,4.19-3.47
	C22.32,32.61,27.21,34.05,31.74,35.8z"/>
<path fill="#FDFDFB" d="M36.37,58.471c6.68-2.111,12.95,2.409,19.62,2.069c2.18-0.09,4.26,0.58,6.23,1.44
	c-3.621,3.5-9.201,2.42-13.65,1.49c-5.1-1.841-10.561-1.011-15.85-1.33C33.71,60.75,34.5,58.859,36.37,58.471z"/>
</svg>
