<?xml version="1.0" encoding="utf-8"?>
<!-- Generator: Adobe Illustrator 14.0.0, SVG Export Plug-In . SVG Version: 6.00 Build 43363)  -->
<!DOCTYPE svg PUBLIC "-//W3C//DTD SVG 1.1//EN" "http://www.w3.org/Graphics/SVG/1.1/DTD/svg11.dtd">
<svg version="1.1" id="Layer_1" xmlns="http://www.w3.org/2000/svg" xmlns:xlink="http://www.w3.org/1999/xlink" x="0px" y="0px"
	 width="472.543px" height="131.792px" viewBox="0 0 472.543 131.792" enable-background="new 0 0 472.543 131.792"
	 xml:space="preserve">
<rect x="168.106" y="18.683" fill="none" width="304.437" height="72.277"/>
<text transform="matrix(1 0 0 1 168.1064 69.0522)" fill="#FFFFFF" font-family="'Marcellus-Regular'" font-size="69">J.R. Albert</text>
<rect x="168.864" y="89.472" fill="none" width="305.459" height="40.663"/>
<text transform="matrix(1 0 0 1 168.8638 112.562)" fill="#FFFFFF" font-family="'Marcellus-Regular'" font-size="31.6302" letter-spacing="10">FOUNDATION</text>
<rect x="131.571" fill="#21315A" width="2.149" height="131.792"/>
<path fill="#213160" d="M0,18.683h96.16v98.184H0V18.683z"/>
<path fill="#FDFDFB" d="M32.128,54.92c4.868-9.707,10.041-19.303,16.408-28.129c1.781,1.63,3.39,3.452,4.656,5.527
	c6.488,10.294,11.165,21.569,15.953,32.714c5,0.111,9.95-1.093,14.94-0.506c-0.263,1.205-0.75,2.45-2.045,2.845
	c-3.522,1.507-7.439,1.64-11.194,2.146c3.734,11.206,6.133,22.814,7.764,34.506c-2.824,0.627-5.729,0.567-8.594,0.374
	c-2.459-11.803-4.756-23.696-8.978-35.022c-3.037,0.345-6.053,0.87-9.08,1.285c1.306-3.288,4.596-4.635,7.521-6.103
	c-3.542-7.349-5.82-15.335-10.324-22.177c-0.405-1.113-2.025-1.63-2.744-0.546c-3.239,4.23-5.314,9.211-7.763,13.918
	c2.773,0.647,6.022,0.799,7.753,3.431c-3.158,0.881-6.438,1.043-9.687,1.226c-6.468,13.563-9.667,28.381-11.671,43.19
	c-3.178,0.272-6.387,0.272-9.565-0.031c0.021-1.477,0.03-2.956,0.03-4.433c1.346-0.295,2.683-0.567,4.028-0.86
	c0.719-5.232,1.873-10.396,2.855-15.588c1.62-8.37,5.183-16.166,7.986-24.171c-5.324-2.47-11.286-1.853-16.964-2.338
	c1.103-1.468,2.257-3.229,4.241-3.513C22.592,51.691,27.542,53.148,32.128,54.92z"/>
<path fill="#FDFDFB" d="M36.814,77.867c6.761-2.137,13.108,2.439,19.86,2.096c2.206-0.091,4.312,0.588,6.307,1.457
	c-3.666,3.543-9.313,2.449-13.817,1.509c-5.162-1.862-10.689-1.022-16.043-1.347C34.122,80.174,34.921,78.26,36.814,77.867z"/>
</svg>
